<?xml version="1.0" encoding="iso-8859-1"?>
<!-- Generator: Adobe Illustrator 19.0.0, SVG Export Plug-In . SVG Version: 6.00 Build 0)  -->
<svg version="1.1" id="Layer_1" xmlns="http://www.w3.org/2000/svg" xmlns:xlink="http://www.w3.org/1999/xlink" x="0px" y="0px"
	 viewBox="0 0 512 512" xml:space="preserve">
<g>
	<g>
		<path d="M499.072,213.436C498.308,212.524,497.184,212,496,212H356c-2.208,0-4,1.792-4,4s1.792,4,4,4h135.216L440.66,500H71.344
			L20.788,220H156c2.208,0,4-1.792,4-4s-1.792-4-4-4H16c-1.184,0-2.308,0.524-3.072,1.436c-0.76,0.908-1.076,2.108-0.864,3.276
			l52,288c0.344,1.904,2,3.288,3.936,3.288h376c1.936,0,3.592-1.384,3.936-3.288l52-288
			C500.148,215.544,499.832,214.344,499.072,213.436z"/>
	</g>
</g>
<g>
	<g>
		<path d="M332,212H180c-2.208,0-4,1.792-4,4s1.792,4,4,4h152c2.208,0,4-1.792,4-4S334.208,212,332,212z"/>
	</g>
</g>
<g>
	<g>
		<path d="M332,212.004H180c-2.208,0-4,1.792-4,4c0,2.208,1.792,4,4,4h152c2.208,0,4-1.792,4-4
			C336,213.796,334.208,212.004,332,212.004z"/>
	</g>
</g>
<g>
	<g>
		<path d="M500,188.004H352c-2.208,0-4,1.792-4,4c0,2.208,1.792,4,4,4h148c2.204,0,4,1.796,4,4v8c0,2.204-1.796,4-4,4H356
			c-2.208,0-4,1.792-4,4c0,2.208,1.792,4,4,4h144c6.616,0,12-5.384,12-12v-8C512,193.388,506.616,188.004,500,188.004z"/>
	</g>
</g>
<g>
	<g>
		<path d="M324,188.004H188c-2.208,0-4,1.792-4,4c0,2.208,1.792,4,4,4h136c2.208,0,4-1.792,4-4
			C328,189.796,326.208,188.004,324,188.004z"/>
	</g>
</g>
<g>
	<g>
		<path d="M160,188.004H12c-6.616,0-12,5.384-12,12v8c0,6.616,5.384,12,12,12h144c2.208,0,4-1.792,4-4c0-2.208-1.792-4-4-4H12
			c-2.204,0-4-1.796-4-4v-8c0-2.204,1.796-4,4-4h148c2.208,0,4-1.792,4-4C164,189.796,162.208,188.004,160,188.004z"/>
	</g>
</g>
<g>
	<g>
		<path d="M484,260H28c-2.208,0-4,1.792-4,4s1.792,4,4,4h456c2.208,0,4-1.792,4-4S486.208,260,484,260z"/>
	</g>
</g>
<g>
	<g>
		<path d="M460,404H52c-2.208,0-4,1.792-4,4s1.792,4,4,4h408c2.208,0,4-1.792,4-4S462.208,404,460,404z"/>
	</g>
</g>
<g>
	<g>
		<path d="M476,308H36c-2.208,0-4,1.792-4,4s1.792,4,4,4h440c2.208,0,4-1.792,4-4S478.208,308,476,308z"/>
	</g>
</g>
<g>
	<g>
		<path d="M468,356H44c-2.208,0-4,1.792-4,4s1.792,4,4,4h424c2.208,0,4-1.792,4-4S470.208,356,468,356z"/>
	</g>
</g>
<g>
	<g>
		<path d="M452,452H60c-2.208,0-4,1.792-4,4s1.792,4,4,4h392c2.208,0,4-1.792,4-4S454.208,452,452,452z"/>
	</g>
</g>
<g>
	<g>
		<path d="M143.988,215.724c-0.156-2.204-2.068-3.856-4.268-3.712c-2.204,0.152-3.864,2.064-3.712,4.268l20,288
			c0.148,2.112,1.904,3.724,3.988,3.724c0.092,0,0.188-0.004,0.28-0.012c2.204-0.152,3.864-2.064,3.712-4.268L143.988,215.724z"/>
	</g>
</g>
<g>
	<g>
		<path d="M204,215.896c-0.06-2.208-1.852-3.956-4.108-3.888c-2.212,0.06-3.952,1.9-3.888,4.108l8,288
			c0.06,2.168,1.836,3.888,3.996,3.888c0.036,0,0.076,0,0.112,0c2.212-0.06,3.952-1.9,3.888-4.108L204,215.896z"/>
	</g>
</g>
<g>
	<g>
		<path d="M115.976,503.56l-32-288c-0.244-2.196-2.232-3.78-4.416-3.532c-2.196,0.244-3.776,2.22-3.532,4.416l32,288
			c0.224,2.048,1.96,3.56,3.968,3.56c0.148,0,0.296-0.008,0.448-0.028C114.64,507.732,116.22,505.756,115.976,503.56z"/>
	</g>
</g>
<g>
	<g>
		<path d="M256,212c-2.208,0-4,1.792-4,4v288c0,2.208,1.792,4,4,4s4-1.792,4-4V216C260,213.792,258.208,212,256,212z"/>
	</g>
</g>
<g>
	<g>
		<path d="M372.28,212.016c-2.184-0.128-4.116,1.508-4.268,3.712l-20,288c-0.152,2.204,1.508,4.116,3.712,4.268
			c0.092,0.004,0.188,0.008,0.28,0.008c2.08,0,3.84-1.612,3.988-3.72l20-288C376.144,214.08,374.484,212.168,372.28,212.016z"/>
	</g>
</g>
<g>
	<g>
		<path d="M312.108,212.008c-2.38-0.164-4.048,1.68-4.108,3.888l-8,288c-0.06,2.208,1.68,4.048,3.888,4.108c0.036,0,0.076,0,0.112,0
			c2.16,0,3.936-1.72,3.996-3.888l8-288C316.056,213.908,314.316,212.068,312.108,212.008z"/>
	</g>
</g>
<g>
	<g>
		<path d="M432.44,212.032c-2.196-0.24-4.172,1.336-4.416,3.532l-32,288c-0.244,2.196,1.336,4.172,3.532,4.416
			c0.152,0.016,0.3,0.024,0.448,0.024c2.012,0,3.744-1.512,3.968-3.556l32-288C436.216,214.252,434.636,212.276,432.44,212.032z"/>
	</g>
</g>
<g id="SVGCleanerId_0">
	<g>
		<path d="M359.152,202.844l-64-188c-2.212-6.488-8.3-10.848-15.148-10.848c-1.752,0-3.488,0.288-5.156,0.856
			c-4.044,1.38-7.312,4.252-9.2,8.084c-1.888,3.836-2.168,8.176-0.792,12.22l64,188c2.212,6.488,8.296,10.848,15.144,10.848
			c1.756,0,3.496-0.288,5.16-0.856c4.044-1.38,7.312-4.252,9.2-8.084C360.248,211.228,360.528,206.888,359.152,202.844z
			 M351.184,211.528c-0.944,1.92-2.576,3.356-4.604,4.044c-4.108,1.396-8.764-0.92-10.148-4.996l-64-188
			c-0.688-2.024-0.548-4.192,0.396-6.108c0.94-1.916,2.576-3.352,4.6-4.04c0.836-0.288,1.704-0.432,2.576-0.432
			c3.424,0,6.468,2.18,7.576,5.424l64,188C352.268,207.444,352.128,209.612,351.184,211.528z"/>
	</g>
</g>
<g id="SVGCleanerId_1">
	<g>
		<path d="M246.36,12.936c-1.884-3.832-5.152-6.704-9.196-8.08c-1.672-0.572-3.408-0.86-5.16-0.86
			c-6.852,0-12.94,4.36-15.148,10.848l-64,188c-1.376,4.044-1.096,8.384,0.792,12.22c1.888,3.832,5.156,6.704,9.196,8.08
			c1.668,0.572,3.408,0.86,5.164,0.86c6.848,0,12.932-4.36,15.144-10.848l64-188C248.528,21.112,248.248,16.772,246.36,12.936z
			 M239.58,22.572l-64,188c-1.388,4.08-6.028,6.408-10.152,4.996c-2.024-0.688-3.656-2.124-4.6-4.04
			c-0.944-1.916-1.084-4.084-0.396-6.108l64-188c1.104-3.244,4.148-5.424,7.572-5.424c0.872,0,1.74,0.144,2.58,0.428
			c2.024,0.688,3.656,2.124,4.6,4.04C240.128,18.38,240.268,20.548,239.58,22.572z"/>
	</g>
</g>
<g>
	<g>
		<path d="M359.152,202.844l-64-188c-2.212-6.488-8.3-10.848-15.148-10.848c-1.752,0-3.488,0.288-5.156,0.856
			c-4.044,1.38-7.312,4.252-9.2,8.084c-1.888,3.836-2.168,8.176-0.792,12.22l64,188c2.212,6.488,8.296,10.848,15.144,10.848
			c1.756,0,3.496-0.288,5.16-0.856c4.044-1.38,7.312-4.252,9.2-8.084C360.248,211.228,360.528,206.888,359.152,202.844z
			 M351.184,211.528c-0.944,1.92-2.576,3.356-4.604,4.044c-4.108,1.396-8.764-0.92-10.148-4.996l-64-188
			c-0.688-2.024-0.548-4.192,0.396-6.108c0.94-1.916,2.576-3.352,4.6-4.04c0.836-0.288,1.704-0.432,2.576-0.432
			c3.424,0,6.468,2.18,7.576,5.424l64,188C352.268,207.444,352.128,209.612,351.184,211.528z"/>
	</g>
</g>
<g>
	<g>
		<path d="M246.36,12.936c-1.884-3.832-5.152-6.704-9.196-8.08c-1.672-0.572-3.408-0.86-5.16-0.86
			c-6.852,0-12.94,4.36-15.148,10.848l-64,188c-1.376,4.044-1.096,8.384,0.792,12.22c1.888,3.832,5.156,6.704,9.196,8.08
			c1.668,0.572,3.408,0.86,5.164,0.86c6.848,0,12.932-4.36,15.144-10.848l64-188C248.528,21.112,248.248,16.772,246.36,12.936z
			 M239.58,22.572l-64,188c-1.388,4.08-6.028,6.408-10.152,4.996c-2.024-0.688-3.656-2.124-4.6-4.04
			c-0.944-1.916-1.084-4.084-0.396-6.108l64-188c1.104-3.244,4.148-5.424,7.572-5.424c0.872,0,1.74,0.144,2.58,0.428
			c2.024,0.688,3.656,2.124,4.6,4.04C240.128,18.38,240.268,20.548,239.58,22.572z"/>
	</g>
</g>
<g>
	<g>
		<path d="M170.84,205.16c-1.48-1.48-4.16-1.48-5.68,0c-0.72,0.76-1.16,1.8-1.16,2.84s0.44,2.08,1.16,2.84
			c0.76,0.72,1.8,1.16,2.84,1.16s2.08-0.44,2.84-1.16c0.72-0.76,1.16-1.76,1.16-2.84C172,206.96,171.56,205.92,170.84,205.16z"/>
	</g>
</g>
<g>
	<g>
		<path d="M346.84,205.16c-1.48-1.48-4.2-1.48-5.68,0c-0.72,0.76-1.16,1.76-1.16,2.84s0.44,2.08,1.16,2.84
			c0.76,0.72,1.8,1.16,2.84,1.16c1.04,0,2.08-0.44,2.84-1.16c0.72-0.76,1.16-1.8,1.16-2.84S347.56,205.92,346.84,205.16z"/>
	</g>
</g>
<g>
</g>
<g>
</g>
<g>
</g>
<g>
</g>
<g>
</g>
<g>
</g>
<g>
</g>
<g>
</g>
<g>
</g>
<g>
</g>
<g>
</g>
<g>
</g>
<g>
</g>
<g>
</g>
<g>
</g>
</svg>
